<?xml version="1.0" standalone="no"?>
<!DOCTYPE svg PUBLIC "-//W3C//DTD SVG 20010904//EN"
 "http://www.w3.org/TR/2001/REC-SVG-20010904/DTD/svg10.dtd">
<svg version="1.0" xmlns="http://www.w3.org/2000/svg"
 width="60.000000pt" height="40.000000pt" viewBox="0 0 60.000000 40.000000"
 preserveAspectRatio="xMidYMid meet">
<metadata>
Created by potrace 1.10, written by Peter Selinger 2001-2011
</metadata>
<g transform="translate(0.000000,40.000000) scale(0.100000,-0.100000)"
fill="#000000" stroke="none">
<path d="M203 290 c-13 -5 -23 -16 -23 -25 0 -8 -5 -15 -11 -15 -5 0 -8 -4 -5
-8 11 -19 -35 -52 -72 -52 -20 0 -44 -5 -52 -11 -11 -8 2 -9 49 -5 35 3 80 7
100 7 20 1 28 3 17 6 -14 4 -17 11 -12 35 3 17 6 36 6 42 0 14 68 9 88 -6 21
-18 14 -66 -13 -84 -13 -8 -29 -13 -34 -10 -5 4 -12 2 -16 -3 -6 -10 67 -7
210 9 42 4 55 8 33 9 -21 0 -38 3 -38 6 0 9 33 59 44 66 5 4 6 14 3 22 -5 12
-26 15 -105 16 -55 0 -110 2 -123 5 -13 3 -34 1 -46 -4z m151 -46 l-6 -35 33
30 c18 17 39 31 45 31 7 0 21 3 31 6 10 3 -4 -15 -32 -41 -27 -25 -49 -50 -47
-56 1 -5 -14 -9 -34 -9 l-36 0 7 48 c6 43 18 61 38 62 4 0 5 -16 1 -36z"/>
<path d="M230 220 c0 -15 5 -20 18 -18 9 2 17 10 17 18 0 8 -8 16 -17 18 -13
2 -18 -3 -18 -18z"/>
<path d="M45 150 c11 -5 36 -9 56 -9 32 -1 39 -6 53 -36 17 -36 50 -47 73 -24
8 8 13 8 17 0 9 -14 96 -15 96 -1 0 6 9 10 19 10 11 0 23 -4 26 -10 3 -5 18
-10 33 -9 25 0 25 1 6 9 -11 4 -32 22 -47 39 -33 40 -47 39 -47 -2 0 -31 -3
-34 -29 -35 -21 0 -34 7 -46 24 -21 33 -54 33 -47 -1 3 -20 0 -25 -17 -25 -21
0 -22 13 -5 68 2 9 -17 12 -79 11 -55 0 -75 -3 -62 -9z"/>
<path d="M432 151 l-34 -6 32 -30 31 -30 -10 27 c-10 26 -8 28 17 34 15 3 32
7 37 9 17 6 -38 3 -73 -4z"/>
</g>
</svg>
